<?xml version="1.0" encoding="UTF-8"?><svg id="b" xmlns="http://www.w3.org/2000/svg" viewBox="0 0 20 20"><g id="c"><path d="M11.03,0c1.13,0,1.7,0,2.19.02h.19c.22.01.45.02.71.04,1.06.05,1.79.22,2.43.46.66.25,1.22.6,1.77,1.15.56.56.9,1.11,1.15,1.77.25.64.42,1.36.47,2.43.01.27.02.49.03.71v.19c.02.49.03,1.06.03,2.19v.75c0,.09,0,.19,0,.28v.28s0,.75,0,.75c0,1.13,0,1.7-.02,2.19v.19c-.01.22-.02.45-.04.71-.05,1.06-.22,1.79-.47,2.43-.25.66-.6,1.22-1.15,1.77-.56.56-1.11.9-1.77,1.15-.64.25-1.36.41-2.43.47-.27.01-.49.02-.71.03h-.19c-.49.02-1.06.03-2.19.03h-.75c-.09,0-.19,0-.28,0h-1.03c-1.13,0-1.7,0-2.19-.02h-.19c-.22-.01-.45-.02-.71-.04-1.06-.05-1.79-.22-2.43-.47-.66-.25-1.22-.6-1.77-1.15-.56-.56-.9-1.11-1.15-1.77-.25-.64-.41-1.36-.46-2.43-.01-.27-.02-.49-.03-.71v-.19C0,12.72,0,12.15,0,11.03v-2.06c0-1.13,0-1.7.02-2.19v-.19c.01-.22.02-.45.04-.71.05-1.07.22-1.79.46-2.43.25-.66.6-1.22,1.15-1.77.56-.56,1.11-.9,1.77-1.15.64-.25,1.36-.41,2.43-.46.27-.01.49-.02.71-.03h.19C7.28,0,7.85,0,8.97,0h2.06ZM10,5c-2.76,0-5,2.24-5,5s2.24,5,5,5,5-2.24,5-5-2.24-5-5-5ZM10,7c1.66,0,3,1.34,3,3s-1.34,3-3,3-3-1.34-3-3,1.34-3,3-3ZM15.25,3.5c-.69,0-1.25.56-1.25,1.25s.56,1.25,1.25,1.25,1.25-.56,1.25-1.25-.56-1.25-1.25-1.25Z"/></g></svg>