<?xml version="1.0" encoding="UTF-8"?><svg id="b" xmlns="http://www.w3.org/2000/svg" viewBox="0 0 18.43 18.43"><g id="c"><path d="M15.7,15.7h-2.73v-4.28c0-1.02-.02-2.33-1.42-2.33s-1.64,1.11-1.64,2.26v4.35h-2.73V6.91h2.62v1.2h.04c.37-.69,1.26-1.42,2.59-1.42,2.76,0,3.28,1.82,3.28,4.19v4.83h0ZM4.1,5.71c-.88,0-1.58-.71-1.58-1.59s.71-1.58,1.58-1.58,1.58.71,1.58,1.58-.71,1.59-1.58,1.59ZM5.47,15.7h-2.74V6.91h2.74v8.79ZM17.06,0H1.36C.61,0,0,.59,0,1.33v15.77c0,.73.61,1.33,1.36,1.33h15.7c.75,0,1.37-.59,1.37-1.33V1.33c0-.73-.61-1.33-1.37-1.33h0Z"/></g></svg>