<?xml version="1.0" encoding="UTF-8"?>
<svg id="b" data-name="Layer 2" xmlns="http://www.w3.org/2000/svg" viewBox="0 0 19 18.9">
  <g id="c" data-name="Layer 1">
    <path d="M17.29,3.11h.71c.55,0,1,.45,1,1v7c0,.55-.45,1-1,1h-2l-4.17-5.84c-.5-.7-1.38-1-2.2-.75l-2.49.75c-.7.21-1.47.02-1.99-.5l-.29-.29c-.45-.45-.37-1.19.15-1.54L10.42.34c.66-.44,1.52-.45,2.18-.02l4.16,2.64c.16.1.35.16.54.16ZM3.03,11.41l-1.62,1.41c-.47.41-.45,1.15.04,1.54l5.14,4.04c.48.38,1.18.24,1.49-.29l.7-1.23c.43-.75.33-1.7-.26-2.34l-2.7-2.97c-.73-.81-1.98-.88-2.8-.16ZM5.05,2.11H1c-.55,0-1,.45-1,1v7.52c0,.41.12.8.35,1.13.02-.02.05-.04.07-.07l1.62-1.41c1.44-1.26,3.61-1.13,4.89.28l2.7,2.97c1.02,1.12,1.2,2.77.45,4.09l-.65,1.15c.56.21,1.2.17,1.74-.16l4.41-2.65c.5-.3.64-.96.3-1.44l-5.27-7.38c-.12-.17-.35-.25-.55-.19l-2.49.75c-1.23.37-2.57.03-3.48-.88l-.29-.29c-1.12-1.12-.93-2.97.38-3.85l.86-.58Z"/>
  </g>
</svg>