<?xml version="1.0" encoding="UTF-8"?><svg id="b" xmlns="http://www.w3.org/2000/svg" viewBox="0 0 24 19.64"><g id="c"><path d="M15.27,0h-6.55C5.48,0,2.78,2.37,2.27,5.48c.15-.01.3-.02.46-.02,2.71,0,4.91,2.2,4.91,4.91v1.64h8.73v-1.64c0-2.71,2.2-4.91,4.91-4.91.15,0,.31,0,.46.02-.51-3.11-3.21-5.48-6.46-5.48ZM21.82,7.69c-.18-.04-.36-.05-.55-.05-1.51,0-2.73,1.22-2.73,2.73v4.91h-2.18v-1.09H7.64v1.09h-2.18v-4.91c0-1.51-1.22-2.73-2.73-2.73-.19,0-.37.02-.55.05-1.24.25-2.18,1.35-2.18,2.67,0,.64.2,1.13.43,1.7.31.76.67,1.65.66,3.21v3.27c0,.6.49,1.09,1.09,1.09h19.64c.6,0,1.09-.49,1.09-1.09v-3.27c0-1.56.36-2.45.67-3.21.23-.56.43-1.05.43-1.7,0-1.32-.94-2.42-2.18-2.67Z"/></g></svg>