<?xml version="1.0" encoding="UTF-8"?>
<svg id="b" data-name="Layer 2" xmlns="http://www.w3.org/2000/svg" viewBox="0 0 22 17.83">
  <g id="c" data-name="Layer 1">
    <path d="M2.03,8.81c.04-1.48.13-2.67.32-3.66.33-1.66.95-2.66,2.2-3.49l-1.11-1.66C1.69,1.17.81,2.67.39,4.76,0,6.73,0,9.32,0,12.71H0v.12H0C0,15.59,2.24,17.83,5,17.83s5-2.24,5-5c0-.27-.02-.54-.06-.81.33-.13.69-.19,1.06-.19s.73.07,1.06.19c-.04.26-.06.53-.06.81,0,2.76,2.24,5,5,5s5-2.24,5-5v-.12c0-3.4,0-5.98-.39-7.95C21.19,2.67,20.31,1.17,18.56,0l-1.11,1.66c1.25.83,1.87,1.83,2.2,3.49.2.99.29,2.17.32,3.66-.83-.61-1.86-.98-2.97-.98-1.78,0-3.34.93-4.22,2.32-.55-.21-1.15-.32-1.78-.32s-1.22.11-1.78.32c-.89-1.4-2.45-2.32-4.22-2.32-1.11,0-2.14.36-2.97.98Z"/>
  </g>
</svg>