<?xml version="1.0" encoding="UTF-8"?><svg id="b" xmlns="http://www.w3.org/2000/svg" viewBox="0 0 20.21 20.22"><g id="c"><path d="M0,20.22c0-4.25,3.45-7.7,7.7-7.7s7.7,3.45,7.7,7.7H0ZM7.7,11.56c-3.19,0-5.78-2.59-5.78-5.78S4.51,0,7.7,0s5.78,2.59,5.78,5.78-2.59,5.78-5.78,5.78ZM14.79,13.71c2.97.76,5.2,3.36,5.41,6.52h-2.87c0-2.51-.96-4.8-2.54-6.52ZM12.85,11.51c1.57-1.41,2.56-3.46,2.56-5.74,0-1.36-.35-2.65-.98-3.76,2.21.44,3.87,2.39,3.87,4.72,0,2.66-2.15,4.81-4.81,4.81-.22,0-.43-.01-.64-.04Z"/></g></svg>