<?xml version="1.0" encoding="UTF-8"?><svg id="b" xmlns="http://www.w3.org/2000/svg" viewBox="0 0 20 20"><g id="c"><path d="M10,0c5.52,0,10,4.48,10,10s-4.48,10-10,10c-1.83,0-3.55-.49-5.03-1.36L0,20l1.35-4.97c-.86-1.48-1.36-3.2-1.36-5.03C0,4.48,4.48,0,10,0ZM6.59,5.3h-.2c-.13.02-.26.05-.37.11-.09.04-.17.11-.29.23-.12.11-.19.21-.26.31-.37.48-.57,1.07-.56,1.68,0,.49.13.97.33,1.41.41.9,1.08,1.86,1.97,2.74.21.21.42.43.65.63,1.1.97,2.42,1.67,3.84,2.05,0,0,.56.09.57.09.19.01.37,0,.56-.01.29-.01.58-.09.83-.23.17-.09.24-.13.38-.22,0,0,.04-.03.12-.09.14-.1.22-.17.33-.29.08-.09.15-.19.21-.3.08-.16.16-.47.19-.73.02-.2.02-.31.01-.37,0-.11-.09-.22-.19-.27l-.58-.26s-.87-.38-1.4-.62c-.06-.03-.12-.04-.18-.04-.13,0-.28.03-.38.13,0,0-.07.06-.79.93-.04.05-.13.15-.3.14-.02,0-.05,0-.07-.01-.07-.02-.13-.04-.19-.07-.12-.05-.17-.07-.25-.11-.58-.25-1.11-.59-1.58-1-.13-.11-.24-.23-.36-.35-.42-.41-.76-.84-1.02-1.27-.01-.02-.04-.06-.06-.09-.04-.07-.09-.15-.1-.2-.04-.15.06-.27.06-.27,0,0,.24-.27.36-.41.11-.14.2-.28.26-.37.12-.19.16-.39.09-.54-.28-.68-.57-1.36-.87-2.04-.06-.13-.23-.23-.39-.25-.05,0-.11-.01-.16-.02-.13,0-.27,0-.4,0h.2Z"/></g></svg>